<?xml version="1.0" standalone="no"?>
<!DOCTYPE svg PUBLIC "-//W3C//DTD SVG 20010904//EN"
 "http://www.w3.org/TR/2001/REC-SVG-20010904/DTD/svg10.dtd">
<svg version="1.0" xmlns="http://www.w3.org/2000/svg"
 width="853.000000" height="981.000000" viewBox="0 0 853.000000 981.000000"
 preserveAspectRatio="xMidYMid meet">-
<g transform="translate(0.000000,981.000000) scale(0.100000,-0.100000)"
fill="#000000" stroke="none">
<path d="M4207 9800 c-284 -51 -516 -224 -637 -475 -72 -148 -84 -202 -84
-380 0 -178 12 -232 84 -380 152 -314 474 -503 823 -482 314 19 588 202 723
482 67 137 87 225 87 380 0 155 -20 243 -87 380 -107 222 -314 393 -551 456
-90 23 -279 34 -358 19z"/>
<path d="M2970 7793 c0 -5 -23 -19 -51 -31 -28 -13 -67 -41 -87 -61 -21 -20
-381 -513 -801 -1094 -420 -582 -768 -1056 -773 -1055 -13 5 -387 332 -387
340 -1 4 49 63 109 132 61 68 110 128 109 132 0 8 -105 102 -178 161 l-27 22
-305 -345 c-167 -190 -305 -348 -306 -352 -2 -9 193 -177 206 -177 5 0 68 68
141 150 73 83 136 150 140 150 4 0 99 -81 212 -180 l203 -179 0 -96 c0 -84 3
-102 28 -152 35 -72 97 -134 167 -167 48 -23 67 -26 145 -24 50 1 103 3 119 5
24 3 55 -20 211 -157 101 -88 184 -163 184 -166 1 -4 -55 -71 -125 -149 -69
-79 -121 -146 -117 -150 72 -66 196 -170 202 -170 10 0 611 680 611 691 0 8
-194 179 -203 179 -3 0 -56 -57 -118 -127 -62 -71 -118 -134 -125 -142 -10
-11 -43 14 -192 144 l-180 158 52 71 c28 39 328 453 665 919 338 466 615 846
618 844 2 -2 19 -94 38 -203 l35 -199 0 -3030 c0 -2667 2 -3038 15 -3094 63
-265 339 -434 600 -366 132 35 261 139 319 257 58 119 56 12 56 2211 l0 2018
108 -3 107 -3 5 -2050 c5 -1963 6 -2052 23 -2100 88 -235 311 -375 539 -337
151 25 299 129 361 254 61 121 57 -112 57 3182 l0 3020 41 230 c22 127 44 240
48 250 6 15 144 -170 676 -905 367 -508 668 -929 669 -935 1 -7 -84 -89 -188
-183 l-189 -172 -26 31 c-14 16 -66 74 -116 129 l-89 99 -36 -31 c-19 -17 -66
-59 -104 -93 l-69 -63 33 -38 c19 -21 159 -177 313 -346 l279 -308 41 37 c23
21 70 63 105 95 l62 57 -140 153 c-77 85 -139 157 -137 161 5 17 392 358 401
354 6 -3 35 -12 65 -21 162 -51 351 43 412 204 23 62 28 176 9 225 -8 21 -7
32 2 43 10 12 263 244 344 316 22 18 22 18 149 -122 71 -78 131 -141 134 -141
3 1 51 43 105 94 l100 93 -308 339 c-169 186 -311 340 -316 342 -4 2 -54 -38
-110 -89 l-101 -92 24 -26 c13 -14 69 -77 125 -138 56 -62 102 -117 102 -122
0 -11 -337 -316 -350 -316 -4 0 -347 468 -760 1040 -414 572 -766 1055 -783
1073 -18 18 -61 48 -97 65 l-65 32 -1332 3 c-733 1 -1333 -1 -1333 -5z"/>
<path d="M7800 6513 c-52 -48 -96 -90 -98 -93 -3 -8 609 -685 619 -685 4 0 52
40 108 89 l100 89 -49 56 c-129 148 -566 625 -575 628 -5 1 -53 -36 -105 -84z"/>
<path d="M317 6220 l-307 -350 43 -38 c80 -74 160 -142 166 -142 7 0 604 676
609 689 2 7 -58 64 -183 172 -20 17 -27 10 -328 -331z"/>
<path d="M2350 4482 c-168 -190 -305 -348 -305 -352 0 -11 196 -181 206 -178
7 3 427 474 567 637 l47 54 -46 41 c-25 22 -72 64 -105 92 l-59 52 -305 -346z"/>
<path d="M5837 4687 l-98 -92 311 -342 c171 -189 314 -343 318 -343 4 0 51 42
106 93 l98 92 -308 340 c-169 187 -312 341 -318 342 -6 1 -55 -39 -109 -90z"/>
</g>
</svg>
