<svg id="Capa_1" enable-background="new 0 0 510 510" height="512" viewBox="0 0 510 510" width="512" xmlns="http://www.w3.org/2000/svg"><g><path d="m365.297 480-15-75h-87.797v-105h33.08c6.192 17.458 22.865 30 42.42 30h60c24.813 0 45-20.187 45-45s-20.187-45-45-45h-60c-19.555 0-36.228 12.542-42.42 30h-33.08v-90h72.351c26.559 0 47.428-22.962 44.776-49.478l-9-90c-2.31-23.101-21.559-40.522-44.776-40.522h-155.702c-23.216 0-42.466 17.42-44.777 40.522l-9 90.001c-2.642 26.427 18.129 49.477 44.777 49.477h71.351v90h-32.08c-6.192-17.458-22.865-30-42.42-30h-60c-24.813 0-45 20.187-45 45s20.187 45 45 45h60c19.555 0 36.227-12.542 42.42-30h32.08v105h-86.797l-15 75h-78.203v30h405v-30zm-27.297-210h60c8.271 0 15 6.729 15 15s-6.729 15-15 15h-60c-8.271 0-15-6.729-15-15s6.729-15 15-15zm-191.776-136.493 9-89.999c.77-7.701 7.187-13.508 14.925-13.508h155.701c7.739 0 14.155 5.807 14.925 13.507l9 90c.876 8.771-5.973 16.492-14.925 16.492h-173.701c-8.955.001-15.802-7.724-14.925-16.492zm11.776 166.493h-60c-8.271 0-15-6.729-15-15s6.729-15 15-15h60c8.271 0 15 6.729 15 15s-6.729 15-15 15zm12.297 135h155.406l9 45h-173.406z"/></g></svg>