<?xml version="1.0" encoding="iso-8859-1"?>
<!-- Generator: Adobe Illustrator 21.0.0, SVG Export Plug-In . SVG Version: 6.00 Build 0)  -->
<svg xmlns="http://www.w3.org/2000/svg" xmlns:xlink="http://www.w3.org/1999/xlink" version="1.1" id="Capa_1" x="0px" y="0px" viewBox="0 0 512 512" style="enable-background:new 0 0 512 512;" xml:space="preserve" width="512" height="512">
<g>
	<path d="M476.164,202.192l-26.334-26.333c-7.193-7.193-17.756-9.006-26.653-5.449l-14.411-14.411   c-15.694-15.694-36.56-24.337-58.753-24.337h-8.297V46.859C341.715,21.021,320.694,0,294.856,0h-77.73   c-25.838,0-46.859,21.021-46.859,46.859V74c0,9.674,15,9.674,15,0V46.859c0-17.567,14.292-31.859,31.859-31.859h7.934v42.418   c0,14.222,9.759,26.207,22.932,29.612v44.631h-62.725V110c0-9.674-15-9.674-15,0v21.662h-7.819   c-22.194,0-43.06,8.643-58.753,24.337l-14.555,14.555c-8.966-3.74-19.703-1.979-26.987,5.305l-26.334,26.333   c-22.455,22.458,12.283,57.547,34.915,34.915l26.334-26.333c8.251-8.251,9.407-20.928,3.512-30.446l13.722-13.722   c12.861-12.861,29.959-19.943,48.147-19.943h7.819V325h-1.554c-13.509,0-24.5,10.991-24.5,24.5s10.991,24.5,24.5,24.5h1.554v89   H69.919c-31.515,0-31.609,49,0,49h282.071c9.674,0,9.674-15,0-15H69.919c-12.195,0-12.213-19,0-19h372.143c12.195,0,12.213,19,0,19   h-52.071c-9.674,0-9.674,15,0,15h52.071c31.515,0,31.609-49,0-49H341.715v-89h1.139c13.509,0,24.5-10.991,24.5-24.5   s-10.991-24.5-24.5-24.5h-1.139V146.662h8.297c18.188,0,35.286,7.083,48.147,19.943l13.422,13.422   c-6.105,9.55-5.002,22.409,3.335,30.747l26.334,26.333C463.812,259.669,498.687,224.716,476.164,202.192z M86.459,200.167   L60.125,226.5c-8.806,8.806-22.637-4.765-13.702-13.702l26.334-26.333C81.551,177.671,95.266,191.359,86.459,200.167z    M240.059,57.418V15h31.163v42.418c0,8.592-6.99,15.582-15.582,15.582S240.059,66.01,240.059,57.418z M262.991,87.101   c13.323-3.3,23.231-15.354,23.231-29.683V15h8.634c17.567,0,31.859,14.292,31.859,31.859v84.802h-63.725V87.101z M228.491,374   v88.864h-43.225V374H228.491z M268.491,462.864h-25V374h25V462.864z M326.715,462.864h-43.225V374h43.225V462.864z M352.354,349.5   c0,5.238-4.262,9.5-9.5,9.5H168.712c-5.238,0-9.5-4.262-9.5-9.5s4.262-9.5,9.5-9.5h174.142   C348.093,340,352.354,344.262,352.354,349.5z M326.715,325H185.266V146.662h141.449V325z M465.558,226.5   c-3.777,3.777-9.923,3.778-13.702,0l-26.334-26.333c-8.8-8.801,4.866-22.535,13.702-13.702l26.333,26.333   C469.335,216.577,469.335,222.723,465.558,226.5z"/>
	<path d="M217.491,305h77c4.142,0,7.5-3.358,7.5-7.5v-121c0-4.142-3.358-7.5-7.5-7.5h-77c-4.142,0-7.5,3.358-7.5,7.5v121   C209.991,301.642,213.349,305,217.491,305z M224.991,244.5h62V260h-62V244.5z M286.991,229.5h-62V214h62V229.5z M224.991,290v-15   h62v15H224.991z M286.991,184v15h-62v-15H286.991z"/>
</g>















</svg>
