<?xml version="1.0" encoding="iso-8859-1"?>
<!-- Generator: Adobe Illustrator 19.0.0, SVG Export Plug-In . SVG Version: 6.00 Build 0)  -->
<svg version="1.1" id="Capa_1" xmlns="http://www.w3.org/2000/svg" xmlns:xlink="http://www.w3.org/1999/xlink" x="0px" y="0px"
	 viewBox="0 0 512 512" style="enable-background:new 0 0 512 512;" xml:space="preserve">
<g>
	<g>
		<g>
			<path d="M426.667,213.33c-28.277,0-51.2,22.923-51.2,51.2s22.923,51.2,51.2,51.2s51.2-22.923,51.2-51.2
				C477.836,236.266,454.931,213.361,426.667,213.33z M426.667,298.664c-18.851,0-34.133-15.282-34.133-34.133
				s15.282-34.133,34.133-34.133S460.8,245.679,460.8,264.53C460.78,283.374,445.51,298.644,426.667,298.664z"/>
			<path d="M512,358.397V264.53c0-2.269-0.166-4.498-0.341-6.723c0.231-0.813,0.338-1.657,0.316-2.502
				c-0.231-2.279-0.593-4.542-1.084-6.779c-3.83-19.252-22.314-83.477-99.726-128.558l27.567-27.567c3.201-3.201,5-7.542,5-12.069
				s-1.799-8.868-5-12.069l-12.066-12.067c-6.667-6.659-17.467-6.659-24.133,0l-82.1,82.1c-6.658,6.668-6.658,17.469,0,24.137
				l12.067,12.067c6.668,6.656,17.466,6.656,24.133,0l19.404-19.404c13.586,7.068,26.434,15.471,38.353,25.086
				c-28.3,4.158-52.642,22.202-64.848,48.071c-9.418-8.333-23.49-8.6-33.217-0.63c-9.727,7.97-12.232,21.82-5.914,32.693
				c6.318,10.872,19.593,15.552,31.333,11.047c1.929,24.373,14.228,46.745,33.773,61.433H102.4V290.13H128
				c14.138,0,25.6-11.461,25.6-25.6c0-14.139-11.462-25.6-25.6-25.6H25.6c-14.138,0-25.6,11.461-25.6,25.6
				c0,14.138,11.461,25.6,25.6,25.6h25.6v42.667H25.6c-6.757-0.053-13.246,2.637-17.983,7.454C2.712,345.01-0.039,351.563,0,358.397
				c0.015,14.132,11.468,25.585,25.6,25.6h4.46l-10.24,25.6h-2.753C7.646,409.608,0.011,417.243,0,426.664v17.067
				c0.011,9.421,7.645,17.056,17.067,17.067h51.2c9.421-0.011,17.056-7.645,17.067-17.067v-17.067
				c-0.019-7.916-5.479-14.78-13.188-16.58l10.434-26.086h346.84l10.434,26.086c-7.709,1.8-13.168,8.664-13.188,16.58v17.067
				c0.011,9.421,7.646,17.056,17.067,17.067h51.2c9.421-0.011,17.056-7.645,17.067-17.067v-17.067
				c-0.011-9.421-7.645-17.056-17.067-17.067h-2.753l-10.24-25.6h4.46C500.51,383.927,511.93,372.507,512,358.397z M332.8,255.997
				c-4.713,0-8.533-3.82-8.533-8.533s3.821-8.533,8.533-8.533c4.713,0,8.533,3.82,8.533,8.533
				C341.329,252.175,337.511,255.992,332.8,255.997z M344.567,162.435L332.5,150.364l82.1-82.1l12.067,12.067L344.567,162.435z
				 M388.695,142.441l9.967-9.967c25.359,13.728,47.578,32.594,65.235,55.392c-7.458-3.637-15.411-6.156-23.603-7.475
				C424.897,165.457,407.538,152.69,388.695,142.441z M25.6,273.064c-4.711-0.005-8.529-3.822-8.533-8.533
				c0.005-4.711,3.822-8.529,8.533-8.533H128c4.713,0,8.533,3.821,8.533,8.533s-3.82,8.533-8.533,8.533H25.6z M85.334,290.13v42.667
				H68.267V290.13H85.334z M68.267,443.73h-51.2v-17.067h8.512l0.021,0.004l0.028-0.004h34.084l0.021,0.004l0.028-0.004h8.505
				V443.73z M38.207,409.597l10.24-25.6h15.746l-10.24,25.6H38.207z M486.372,426.664l0.028,0.004l0.021-0.004h8.512l0.009,17.067
				h-51.209v-17.067h8.505l0.028,0.004l0.021-0.004H486.372z M447.807,383.997h15.746l10.24,25.6h-15.746L447.807,383.997z
				 M25.6,366.931c-4.711-0.005-8.529-3.823-8.533-8.533c-0.005-2.301,0.942-4.501,2.617-6.079c1.555-1.591,3.692-2.477,5.917-2.454
				h401.067c4.713,0,8.533-3.82,8.533-8.533s-3.82-8.533-8.533-8.533c-37.703,0-68.267-30.564-68.267-68.267
				s30.564-68.267,68.267-68.267s68.267,30.564,68.267,68.267v93.867c0.005,2.298-0.938,4.496-2.608,6.075
				c-1.559,1.591-3.698,2.479-5.925,2.458H25.6z"/>
		</g>
	</g>
</g>
<g>
</g>
<g>
</g>
<g>
</g>
<g>
</g>
<g>
</g>
<g>
</g>
<g>
</g>
<g>
</g>
<g>
</g>
<g>
</g>
<g>
</g>
<g>
</g>
<g>
</g>
<g>
</g>
<g>
</g>
</svg>
