<?xml version="1.0" encoding="UTF-8"?>
<svg xmlns="http://www.w3.org/2000/svg" xmlns:xlink="http://www.w3.org/1999/xlink" width="1080" height="1080" viewBox="0 0 1080 1080" version="1.1">
<g id="surface1">
<path style=" stroke:none;fill-rule:nonzero;fill:rgb(0%,0%,0%);fill-opacity:1;" d="M 909.695312 706.320312 L 273.179688 990.207031 C 226.742188 1010.917969 172.304688 990.0625 151.59375 943.621094 C 130.878906 897.183594 151.738281 842.746094 198.175781 822.035156 L 834.691406 538.148438 C 842.050781 534.867188 850.679688 538.171875 853.964844 545.535156 C 857.246094 552.894531 853.941406 561.523438 846.578125 564.808594 L 210.066406 848.691406 C 194.816406 855.558594 182.890625 868.160156 176.871094 883.761719 C 167.863281 907.511719 174.019531 934.347656 192.480469 951.796875 C 210.945312 969.246094 238.085938 973.882812 261.292969 963.546875 L 897.804688 679.664062 C 905.167969 676.382812 913.796875 679.6875 917.078125 687.046875 C 920.363281 694.410156 917.054688 703.039062 909.695312 706.320312 Z M 909.695312 706.320312 "/>
<path style=" stroke:none;fill-rule:nonzero;fill:rgb(0%,0%,0%);fill-opacity:1;" d="M 956.625 688.953125 L 906.347656 709.367188 C 898.878906 712.402344 890.367188 708.804688 887.335938 701.335938 C 884.300781 693.867188 887.898438 685.355469 895.367188 682.324219 L 945.589844 661.933594 C 975.226562 649.855469 989.496094 616.066406 977.484375 586.398438 L 952 523.628906 L 848.066406 565.828125 C 840.597656 568.859375 832.085938 565.265625 829.054688 557.796875 C 826.019531 550.328125 829.617188 541.816406 837.085938 538.78125 L 954.59375 491.070312 C 962.0625 488.039062 970.574219 491.632812 973.609375 499.101562 L 1004.597656 575.421875 C 1022.632812 620.019531 1001.175781 670.804688 956.625 688.953125 Z M 956.625 688.953125 "/>
<path style=" stroke:none;fill-rule:nonzero;fill:rgb(0%,0%,0%);fill-opacity:1;" d="M 862.292969 466.09375 C 845.933594 466.269531 829.640625 463.992188 813.957031 459.335938 C 796.058594 454.917969 778.984375 447.660156 763.386719 437.835938 C 690.339844 393.097656 656.878906 304.566406 682.0625 222.699219 C 705.871094 143.121094 779.230469 88.710938 862.292969 89.027344 C 957.066406 88.898438 1037.164062 159.238281 1049.277344 253.234375 C 1061.390625 347.230469 1001.742188 435.578125 910.03125 459.480469 C 894.496094 463.867188 878.433594 466.089844 862.292969 466.09375 Z M 862.292969 118.246094 C 819.996094 118.203125 779.414062 134.964844 749.476562 164.847656 C 698.492188 215.878906 688.257812 294.84375 724.546875 357.1875 C 737.628906 380.035156 756.238281 399.234375 778.664062 413.027344 C 791.894531 421.332031 806.371094 427.457031 821.542969 431.167969 C 834.761719 435.113281 848.5 437.046875 862.292969 436.902344 C 875.863281 436.902344 889.371094 435.027344 902.425781 431.328125 C 980.0625 411.289062 1030.648438 336.601562 1020.457031 257.070312 C 1010.261719 177.542969 942.472656 118.027344 862.292969 118.214844 Z M 830.433594 366.324219 C 828.511719 366.320312 826.613281 365.9375 824.84375 365.199219 C 789.539062 350.472656 766.628906 315.882812 766.84375 277.632812 C 766.902344 247.402344 781.25 218.980469 805.535156 200.980469 C 812.019531 196.195312 821.15625 197.570312 825.945312 204.054688 C 830.734375 210.539062 829.355469 219.675781 822.871094 224.464844 C 803.804688 238.5 793.714844 261.671875 796.429688 285.191406 C 799.144531 308.710938 814.246094 328.976562 836.007812 338.300781 C 842.363281 341.007812 845.953125 347.800781 844.601562 354.578125 C 843.253906 361.355469 837.339844 366.257812 830.433594 366.324219 Z M 830.433594 366.324219 "/>
<path style=" stroke:none;fill-rule:nonzero;fill:rgb(0%,0%,0%);fill-opacity:1;" d="M 862.292969 373.007812 C 849.316406 372.996094 836.484375 370.289062 824.609375 365.054688 C 819.800781 362.988281 816.472656 358.503906 815.875 353.304688 C 815.28125 348.105469 817.515625 342.988281 821.730469 339.890625 C 825.949219 336.789062 831.5 336.183594 836.285156 338.300781 C 844.472656 341.925781 853.324219 343.804688 862.277344 343.820312 C 891.089844 343.863281 916.625 325.28125 925.445312 297.851562 C 934.261719 270.421875 924.34375 240.4375 900.902344 223.683594 C 877.464844 206.929688 845.882812 207.242188 822.785156 224.464844 C 816.265625 228.96875 807.34375 227.449219 802.683594 221.042969 C 798.023438 214.632812 799.328125 205.679688 805.621094 200.867188 C 838.953125 176.308594 884.320312 176.054688 917.925781 200.234375 C 951.535156 224.410156 965.710938 267.503906 953.023438 306.914062 C 940.335938 346.324219 903.679688 373.050781 862.277344 373.082031 Z M 862.292969 373.007812 "/>
<path style=" stroke:none;fill-rule:nonzero;fill:rgb(0%,0%,0%);fill-opacity:1;" d="M 689.289062 990.59375 L 577.320312 990.59375 C 572.132812 990.59375 567.335938 987.839844 564.71875 983.359375 C 562.101562 978.882812 562.058594 973.351562 564.605469 968.832031 L 661.25 797.390625 C 663.832031 792.789062 668.691406 789.9375 673.964844 789.933594 L 785.917969 789.933594 C 791.105469 789.933594 795.902344 792.6875 798.519531 797.164062 C 801.132812 801.644531 801.175781 807.175781 798.628906 811.691406 L 702 983.164062 C 699.414062 987.753906 694.554688 990.59375 689.289062 990.59375 Z M 602.320312 961.40625 L 680.765625 961.40625 L 760.949219 819.121094 L 682.488281 819.121094 Z M 602.320312 961.40625 "/>
<path style=" stroke:none;fill-rule:nonzero;fill:rgb(0%,0%,0%);fill-opacity:1;" d="M 718.785156 992.417969 L 547.195312 992.417969 C 539.132812 992.417969 532.601562 985.882812 532.601562 977.824219 C 532.601562 969.761719 539.132812 963.230469 547.195312 963.230469 L 718.785156 963.230469 C 726.84375 963.230469 733.378906 969.761719 733.378906 977.824219 C 733.378906 985.882812 726.84375 992.417969 718.785156 992.417969 Z M 718.785156 992.417969 "/>
<path style=" stroke:none;fill-rule:nonzero;fill:rgb(0%,0%,0%);fill-opacity:1;" d="M 927.996094 990.972656 L 796.644531 990.972656 C 788.585938 990.972656 782.050781 984.4375 782.050781 976.378906 C 782.050781 968.316406 788.585938 961.785156 796.644531 961.785156 L 927.996094 961.785156 C 936.058594 961.785156 942.59375 968.316406 942.59375 976.378906 C 942.59375 984.4375 936.058594 990.972656 927.996094 990.972656 Z M 927.996094 990.972656 "/>
<path style=" stroke:none;fill-rule:nonzero;fill:rgb(100%,100%,100%);fill-opacity:1;" d="M 820.945312 452.433594 L 893.917969 452.433594 L 893.917969 963.242188 L 820.945312 963.242188 Z M 820.945312 452.433594 "/>
<path style=" stroke:none;fill-rule:nonzero;fill:rgb(0%,0%,0%);fill-opacity:1;" d="M 906.324219 990.972656 L 818.203125 990.972656 C 810.140625 990.972656 803.609375 984.4375 803.609375 976.378906 L 803.609375 445.382812 C 803.609375 437.324219 810.140625 430.789062 818.203125 430.789062 C 826.261719 430.789062 832.796875 437.324219 832.796875 445.382812 L 832.796875 961.785156 L 891.730469 961.785156 L 891.730469 445.382812 C 891.730469 437.324219 898.265625 430.789062 906.324219 430.789062 C 914.382812 430.789062 920.917969 437.324219 920.917969 445.382812 L 920.917969 976.378906 C 920.917969 984.4375 914.382812 990.972656 906.324219 990.972656 Z M 906.324219 990.972656 "/>
</g>
</svg>
