<?xml version="1.0" encoding="UTF-8"?>
<svg xmlns="http://www.w3.org/2000/svg" xmlns:xlink="http://www.w3.org/1999/xlink" width="1080" height="1080" viewBox="0 0 1080 1080" version="1.1">
<g id="surface1">
<path style=" stroke:none;fill-rule:nonzero;fill:rgb(0%,0%,0%);fill-opacity:1;" d="M 847.390625 817.296875 L 150.441406 817.296875 C 99.59375 817.296875 58.371094 776.074219 58.371094 725.226562 C 58.371094 674.378906 99.59375 633.15625 150.441406 633.15625 L 847.390625 633.15625 C 855.453125 633.15625 861.984375 639.691406 861.984375 647.75 C 861.984375 655.8125 855.453125 662.347656 847.390625 662.347656 L 150.441406 662.347656 C 133.71875 662.40625 117.695312 669.054688 105.839844 680.851562 C 87.9375 698.875 82.632812 725.894531 92.386719 749.347656 C 102.136719 772.804688 125.039062 788.09375 150.441406 788.109375 L 847.390625 788.109375 C 855.453125 788.109375 861.984375 794.640625 861.984375 802.703125 C 861.984375 810.761719 855.453125 817.296875 847.390625 817.296875 Z M 847.390625 817.296875 "/>
<path style=" stroke:none;fill-rule:nonzero;fill:rgb(100%,100%,100%);fill-opacity:1;" d="M 820.945312 452.433594 L 893.917969 452.433594 L 893.917969 963.242188 L 820.945312 963.242188 Z M 820.945312 452.433594 "/>
<path style=" stroke:none;fill-rule:nonzero;fill:rgb(0%,0%,0%);fill-opacity:1;" d="M 960.585938 817.296875 L 906.324219 817.296875 C 898.265625 817.296875 891.730469 810.761719 891.730469 802.703125 C 891.730469 794.640625 898.265625 788.109375 906.324219 788.109375 L 960.527344 788.109375 C 992.535156 788.066406 1018.464844 762.128906 1018.5 730.125 L 1018.5 662.375 L 906.324219 662.375 C 898.265625 662.375 891.730469 655.839844 891.730469 647.78125 C 891.730469 639.722656 898.265625 633.1875 906.324219 633.1875 L 1033.152344 633.1875 C 1041.210938 633.1875 1047.746094 639.722656 1047.746094 647.78125 L 1047.746094 730.152344 C 1047.679688 778.261719 1008.695312 817.242188 960.585938 817.296875 Z M 960.585938 817.296875 "/>
<path style=" stroke:none;fill-rule:nonzero;fill:rgb(0%,0%,0%);fill-opacity:1;" d="M 862.292969 466.09375 C 845.933594 466.269531 829.640625 463.992188 813.957031 459.335938 C 796.058594 454.917969 778.984375 447.660156 763.386719 437.835938 C 690.339844 393.097656 656.878906 304.566406 682.0625 222.699219 C 705.871094 143.121094 779.230469 88.710938 862.292969 89.027344 C 957.066406 88.898438 1037.164062 159.238281 1049.277344 253.234375 C 1061.390625 347.230469 1001.742188 435.578125 910.03125 459.480469 C 894.496094 463.867188 878.433594 466.089844 862.292969 466.09375 Z M 862.292969 118.246094 C 819.996094 118.203125 779.414062 134.964844 749.476562 164.847656 C 698.492188 215.878906 688.257812 294.84375 724.546875 357.1875 C 737.628906 380.035156 756.238281 399.234375 778.664062 413.027344 C 791.894531 421.332031 806.371094 427.457031 821.542969 431.167969 C 834.761719 435.113281 848.5 437.046875 862.292969 436.902344 C 875.863281 436.902344 889.371094 435.027344 902.425781 431.328125 C 980.0625 411.289062 1030.648438 336.601562 1020.457031 257.070312 C 1010.261719 177.542969 942.472656 118.027344 862.292969 118.214844 Z M 830.433594 366.324219 C 828.511719 366.320312 826.613281 365.9375 824.84375 365.199219 C 789.539062 350.472656 766.628906 315.882812 766.84375 277.632812 C 766.902344 247.402344 781.25 218.980469 805.535156 200.980469 C 812.019531 196.195312 821.15625 197.570312 825.945312 204.054688 C 830.734375 210.539062 829.355469 219.675781 822.871094 224.464844 C 803.804688 238.5 793.714844 261.671875 796.429688 285.191406 C 799.144531 308.710938 814.246094 328.976562 836.007812 338.300781 C 842.363281 341.007812 845.953125 347.800781 844.601562 354.578125 C 843.253906 361.355469 837.339844 366.257812 830.433594 366.324219 Z M 830.433594 366.324219 "/>
<path style=" stroke:none;fill-rule:nonzero;fill:rgb(0%,0%,0%);fill-opacity:1;" d="M 862.292969 373.007812 C 849.316406 372.996094 836.484375 370.289062 824.609375 365.054688 C 819.800781 362.988281 816.472656 358.503906 815.875 353.304688 C 815.28125 348.105469 817.515625 342.988281 821.730469 339.890625 C 825.949219 336.789062 831.5 336.183594 836.285156 338.300781 C 844.472656 341.925781 853.324219 343.804688 862.277344 343.820312 C 891.089844 343.863281 916.625 325.28125 925.445312 297.851562 C 934.261719 270.421875 924.34375 240.4375 900.902344 223.683594 C 877.464844 206.929688 845.882812 207.242188 822.785156 224.464844 C 816.265625 228.96875 807.34375 227.449219 802.683594 221.042969 C 798.023438 214.632812 799.328125 205.679688 805.621094 200.867188 C 838.953125 176.308594 884.320312 176.054688 917.925781 200.234375 C 951.535156 224.410156 965.710938 267.503906 953.023438 306.914062 C 940.335938 346.324219 903.679688 373.050781 862.277344 373.082031 Z M 862.292969 373.007812 "/>
<path style=" stroke:none;fill-rule:nonzero;fill:rgb(0%,0%,0%);fill-opacity:1;" d="M 906.324219 990.972656 L 818.203125 990.972656 C 810.140625 990.972656 803.609375 984.4375 803.609375 976.378906 L 803.609375 445.382812 C 803.609375 437.324219 810.140625 430.789062 818.203125 430.789062 C 826.261719 430.789062 832.796875 437.324219 832.796875 445.382812 L 832.796875 961.785156 L 891.730469 961.785156 L 891.730469 445.382812 C 891.730469 437.324219 898.265625 430.789062 906.324219 430.789062 C 914.382812 430.789062 920.917969 437.324219 920.917969 445.382812 L 920.917969 976.378906 C 920.917969 984.4375 914.382812 990.972656 906.324219 990.972656 Z M 906.324219 990.972656 "/>
<path style=" stroke:none;fill-rule:nonzero;fill:rgb(0%,0%,0%);fill-opacity:1;" d="M 193.070312 988.769531 L 81.101562 988.769531 C 75.914062 988.769531 71.117188 986.015625 68.503906 981.535156 C 65.886719 977.058594 65.84375 971.527344 68.390625 967.007812 L 165.035156 795.566406 C 167.613281 790.964844 172.472656 788.113281 177.746094 788.109375 L 289.703125 788.109375 C 294.890625 788.109375 299.6875 790.863281 302.300781 795.339844 C 304.917969 799.820312 304.960938 805.351562 302.414062 809.867188 L 205.785156 981.339844 C 203.199219 985.929688 198.339844 988.769531 193.070312 988.769531 Z M 106.101562 959.578125 L 184.546875 959.578125 L 264.730469 817.296875 L 186.269531 817.296875 Z M 106.101562 959.578125 "/>
<path style=" stroke:none;fill-rule:nonzero;fill:rgb(0%,0%,0%);fill-opacity:1;" d="M 226.214844 988.769531 L 54.628906 988.769531 C 46.566406 988.769531 40.03125 982.234375 40.03125 974.175781 C 40.03125 966.113281 46.566406 959.578125 54.628906 959.578125 L 226.214844 959.578125 C 234.277344 959.578125 240.8125 966.113281 240.8125 974.175781 C 240.8125 982.234375 234.277344 988.769531 226.214844 988.769531 Z M 226.214844 988.769531 "/>
<path style=" stroke:none;fill-rule:nonzero;fill:rgb(0%,0%,0%);fill-opacity:1;" d="M 927.996094 990.972656 L 796.644531 990.972656 C 788.585938 990.972656 782.050781 984.4375 782.050781 976.378906 C 782.050781 968.316406 788.585938 961.785156 796.644531 961.785156 L 927.996094 961.785156 C 936.058594 961.785156 942.59375 968.316406 942.59375 976.378906 C 942.59375 984.4375 936.058594 990.972656 927.996094 990.972656 Z M 927.996094 990.972656 "/>
</g>
</svg>
