<?xml version="1.0" encoding="UTF-8"?>
<svg xmlns="http://www.w3.org/2000/svg" xmlns:xlink="http://www.w3.org/1999/xlink" width="1080" height="1080" viewBox="0 0 1080 1080" version="1.1">
<g id="surface1">
<path style=" stroke:none;fill-rule:nonzero;fill:rgb(0%,0%,0%);fill-opacity:1;" d="M 817.523438 882.707031 L 171.34375 621.578125 C 124.199219 602.527344 101.425781 548.863281 120.476562 501.71875 C 139.527344 454.574219 193.191406 431.800781 240.335938 450.851562 L 886.515625 711.980469 C 893.992188 715 897.601562 723.507812 894.582031 730.980469 C 891.558594 738.453125 883.054688 742.066406 875.582031 739.042969 L 229.398438 477.914062 C 213.871094 471.707031 196.523438 471.867188 181.113281 478.363281 C 157.761719 488.363281 142.71875 511.425781 142.972656 536.828125 C 143.230469 562.226562 158.734375 584.984375 182.277344 594.515625 L 828.460938 855.644531 C 835.933594 858.664062 839.542969 867.171875 836.523438 874.644531 C 833.503906 882.117188 824.996094 885.726562 817.523438 882.707031 Z M 817.523438 882.707031 "/>
<path style=" stroke:none;fill-rule:nonzero;fill:rgb(0%,0%,0%);fill-opacity:1;" d="M 904.597656 917.257812 L 854.242188 897.039062 C 846.761719 894.035156 843.132812 885.535156 846.136719 878.058594 C 849.140625 870.578125 857.636719 866.949219 865.117188 869.953125 L 915.417969 890.148438 C 945.132812 902.035156 978.863281 887.628906 990.820312 857.941406 L 1016.0625 795.070312 L 911.964844 753.273438 C 904.488281 750.269531 900.859375 741.769531 903.859375 734.292969 C 906.863281 726.8125 915.363281 723.183594 922.84375 726.1875 L 1040.535156 773.441406 C 1048.015625 776.445312 1051.644531 784.945312 1048.640625 792.425781 L 1017.949219 868.863281 C 999.964844 913.484375 949.261719 935.128906 904.597656 917.257812 Z M 904.597656 917.257812 "/>
<path style=" stroke:none;fill-rule:nonzero;fill:rgb(0%,0%,0%);fill-opacity:1;" d="M 862.292969 466.09375 C 845.933594 466.269531 829.640625 463.992188 813.957031 459.335938 C 796.058594 454.917969 778.984375 447.660156 763.386719 437.835938 C 690.339844 393.097656 656.878906 304.566406 682.0625 222.699219 C 705.871094 143.121094 779.230469 88.710938 862.292969 89.027344 C 957.066406 88.898438 1037.164062 159.238281 1049.277344 253.234375 C 1061.390625 347.230469 1001.742188 435.578125 910.03125 459.480469 C 894.496094 463.867188 878.433594 466.089844 862.292969 466.09375 Z M 862.292969 118.246094 C 819.996094 118.203125 779.414062 134.964844 749.476562 164.847656 C 698.492188 215.878906 688.257812 294.84375 724.546875 357.1875 C 737.628906 380.035156 756.238281 399.234375 778.664062 413.027344 C 791.894531 421.332031 806.371094 427.457031 821.542969 431.167969 C 834.761719 435.113281 848.5 437.046875 862.292969 436.902344 C 875.863281 436.902344 889.371094 435.027344 902.425781 431.328125 C 980.0625 411.289062 1030.648438 336.601562 1020.457031 257.070312 C 1010.261719 177.542969 942.472656 118.027344 862.292969 118.214844 Z M 830.433594 366.324219 C 828.511719 366.320312 826.613281 365.9375 824.84375 365.199219 C 789.539062 350.472656 766.628906 315.882812 766.84375 277.632812 C 766.902344 247.402344 781.25 218.980469 805.535156 200.980469 C 812.019531 196.195312 821.15625 197.570312 825.945312 204.054688 C 830.734375 210.539062 829.355469 219.675781 822.871094 224.464844 C 803.804688 238.5 793.714844 261.671875 796.429688 285.191406 C 799.144531 308.710938 814.246094 328.976562 836.007812 338.300781 C 842.363281 341.007812 845.953125 347.800781 844.601562 354.578125 C 843.253906 361.355469 837.339844 366.257812 830.433594 366.324219 Z M 830.433594 366.324219 "/>
<path style=" stroke:none;fill-rule:nonzero;fill:rgb(0%,0%,0%);fill-opacity:1;" d="M 862.292969 373.007812 C 849.316406 372.996094 836.484375 370.289062 824.609375 365.054688 C 819.800781 362.988281 816.472656 358.503906 815.875 353.304688 C 815.28125 348.105469 817.515625 342.988281 821.730469 339.890625 C 825.949219 336.789062 831.5 336.183594 836.285156 338.300781 C 844.472656 341.925781 853.324219 343.804688 862.277344 343.820312 C 891.089844 343.863281 916.625 325.28125 925.445312 297.851562 C 934.261719 270.421875 924.34375 240.4375 900.902344 223.683594 C 877.464844 206.929688 845.882812 207.242188 822.785156 224.464844 C 816.265625 228.96875 807.34375 227.449219 802.683594 221.042969 C 798.023438 214.632812 799.328125 205.679688 805.621094 200.867188 C 838.953125 176.308594 884.320312 176.054688 917.925781 200.234375 C 951.535156 224.410156 965.710938 267.503906 953.023438 306.914062 C 940.335938 346.324219 903.679688 373.050781 862.277344 373.082031 Z M 862.292969 373.007812 "/>
<path style=" stroke:none;fill-rule:nonzero;fill:rgb(0%,0%,0%);fill-opacity:1;" d="M 475.84375 974.175781 L 363.871094 974.175781 C 358.6875 974.171875 353.890625 971.421875 351.273438 966.941406 C 348.65625 962.464844 348.613281 956.933594 351.160156 952.414062 L 447.804688 780.972656 C 450.382812 776.371094 455.246094 773.519531 460.519531 773.511719 L 572.472656 773.511719 C 577.660156 773.515625 582.457031 776.269531 585.074219 780.746094 C 587.6875 785.226562 587.730469 790.753906 585.183594 795.273438 L 488.554688 966.746094 C 485.96875 971.335938 481.109375 974.171875 475.84375 974.175781 Z M 388.871094 944.984375 L 467.320312 944.984375 L 547.5 802.703125 L 469.042969 802.703125 Z M 388.871094 944.984375 "/>
<path style=" stroke:none;fill-rule:nonzero;fill:rgb(0%,0%,0%);fill-opacity:1;" d="M 499.863281 992.417969 L 328.277344 992.417969 C 320.214844 992.417969 313.679688 985.882812 313.679688 977.824219 C 313.679688 969.761719 320.214844 963.230469 328.277344 963.230469 L 499.863281 963.230469 C 507.925781 963.230469 514.460938 969.761719 514.460938 977.824219 C 514.460938 985.882812 507.925781 992.417969 499.863281 992.417969 Z M 499.863281 992.417969 "/>
<path style=" stroke:none;fill-rule:nonzero;fill:rgb(0%,0%,0%);fill-opacity:1;" d="M 927.996094 990.972656 L 796.644531 990.972656 C 788.585938 990.972656 782.050781 984.4375 782.050781 976.378906 C 782.050781 968.316406 788.585938 961.785156 796.644531 961.785156 L 927.996094 961.785156 C 936.058594 961.785156 942.59375 968.316406 942.59375 976.378906 C 942.59375 984.4375 936.058594 990.972656 927.996094 990.972656 Z M 927.996094 990.972656 "/>
<path style=" stroke:none;fill-rule:nonzero;fill:rgb(100%,100%,100%);fill-opacity:1;" d="M 820.945312 452.433594 L 893.917969 452.433594 L 893.917969 963.242188 L 820.945312 963.242188 Z M 820.945312 452.433594 "/>
<path style=" stroke:none;fill-rule:nonzero;fill:rgb(0%,0%,0%);fill-opacity:1;" d="M 906.324219 990.972656 L 818.203125 990.972656 C 810.140625 990.972656 803.609375 984.4375 803.609375 976.378906 L 803.609375 445.382812 C 803.609375 437.324219 810.140625 430.789062 818.203125 430.789062 C 826.261719 430.789062 832.796875 437.324219 832.796875 445.382812 L 832.796875 961.785156 L 891.730469 961.785156 L 891.730469 445.382812 C 891.730469 437.324219 898.265625 430.789062 906.324219 430.789062 C 914.382812 430.789062 920.917969 437.324219 920.917969 445.382812 L 920.917969 976.378906 C 920.917969 984.4375 914.382812 990.972656 906.324219 990.972656 Z M 906.324219 990.972656 "/>
</g>
</svg>
