<svg id="Capa_1" enable-background="new 0 0 512 512" height="512" viewBox="0 0 512 512" width="512" xmlns="http://www.w3.org/2000/svg"><g><g><path d="m338 512h104s30-112 30-169h-162c0 53 28 169 28 169z" fill="#f0c7ad"/><path d="m462 67c0 45.982 50 90 50 147s-35.167 171-73 171-53-30-53-30-18.064 30-43 30-69-58-69-98c0-132 42-133 42-220 0-12.981-15-50-15-50h169s-8 37-8 50z" fill="#f0c7ad"/><path d="m396 100s-21 91-21 119 12 103 12 103l-5 2s-19-81-19-105 28-120 28-120z" fill="#e19d83"/><path d="m388 339s-25.579 25-35 25c-6.36 0-22.962-12.12-33-20l-1 2s21 29 35 29c19.515 0 33-23 33-23s11.391 23 41 23c14 0 33-27 33-27l-1-2c-8.885 8.115-23.962 20-32 20-12.113 0-40-27-40-27z" fill="#e19d83"/><g><path d="m317 448h146l-7 64h-129z" fill="#f4efe3"/><path d="m460.332 472.394 1.157-10.58-142.437-.681 1.97 12.606z" fill="#edbc40"/></g></g><g><g><path d="m174 512h-104s-32-127-32-169h162c0 53-26 169-26 169z" fill="#f0c7ad"/><path d="m48 67c0 45.982-48 88-48 145 0 71 30 173 73 173 37.833 0 53-30 53-30s18.064 30 43 30 73-73 73-104c0-84-44-170-44-214 0-12.981 13-50 13-50h-169s6 37 6 50z" fill="#f0c7ad"/><g fill="#e19d83"><path d="m114 98s21 73 21 101c0 45-14 120-14 120l7 3s19-75 19-123c0-24-27-102-27-102z"/><path d="m121 343s22 25 35 25c6.36 0 24.962-12.12 35-20l2 3s-24 28-38 28c-19.515 0-33-21-33-21s-9.391 21-39 21c-14 0-34-24-34-24l2-4c8.885 8.115 23.962 19 32 19 12.113 0 38-27 38-27z"/></g></g><g><path d="m191 456-140 2 7 54h123z" fill="#f4efe3"/><path d="m185.894 484.594 2.589-14.496-135.947-.247 1.386 10.692z" fill="#edbc40"/></g></g><g fill="#7a7a93"><path d="m14 0 7 61 198 3 35-64z"/><path d="m254 0 35 64 197-7 10-57z"/></g></g></svg>