<?xml version="1.0" standalone="no"?>
<!DOCTYPE svg PUBLIC "-//W3C//DTD SVG 1.0//EN" "http://www.w3.org/TR/2001/REC-SVG-20010904/DTD/svg10.dtd">
<svg xmlns="http://www.w3.org/2000/svg" xmlns:xlink="http://www.w3.org/1999/xlink" id="body_1" width="512" height="512">

<defs>
    <clipPath  id="1">

    <path id=""  clip-rule="evenodd" transform="matrix(1 0 0 1 0 0)"  d="M0 0L384 0L384 0L384 384L384 384L2.351322E-14 384L2.351322E-14 384L0 0z" />    </clipPath>
</defs>

<g transform="matrix(1.3333 0 0 1.3333 0 0)">
	<g clip-path="url(#1)" >
    <path id=""  transform="matrix(1 0 0 -1 0 384)"  d="M237 14.9999695C 232.86621 14.9999695 229.5 18.36618 229.5 22.49997L229.5 22.49997L229.5 22.49997L229.5 22.49997L229.5 29.99997L229.5 29.99997L229.5 29.99997L229.5 29.99997L274.5 29.99997L274.5 29.99997L274.5 29.99997L274.5 29.99997L274.5 22.49997L274.5 22.49997L274.5 22.49997C 274.5 18.36618 271.1338 14.9999695 267 14.9999695zM180.75 44.99997C 172.47656 44.99997 165.75 51.726532 165.75 59.99997L165.75 59.99997L165.75 59.99997C 165.75 68.27341 172.47656 74.99997 180.75 74.99997L180.75 74.99997L180.75 74.99997L180.75 74.99997L323.25 74.99997L323.25 74.99997L323.25 74.99997C 331.52344 74.99997 338.25 68.27341 338.25 59.99997L338.25 59.99997L338.25 59.99997C 338.25 51.726532 331.52344 44.99997 323.25 44.99997zM162 89.99997C 153.72656 89.99997 147 96.73532 147 105.00876L147 105.00876L147 105.00876C 147 113.27341 153.72656 120.00876 162 120.00876L162 120.00876L162 120.00876L162 120.00876L251.61621 120.00876L251.61621 120.00876L251.61621 120.00876C 251.45215 120.01462 251.28809 120.02927 251.12988 120.052704L251.12988 120.052704L251.12988 120.052704L251.12988 120.052704L252.87012 120.052704L252.87012 120.052704L252.87012 120.052704C 252.71191 120.02927 252.54785 120.01462 252.38379 120.00876L252.38379 120.00876L252.38379 120.00876L252.38379 120.00876L342 120.00876L342 120.00876L342 120.00876C 350.27344 120.00876 357 113.27341 357 105.00876L357 105.00876L357 105.00876L357 105.00876L357 104.99997L357 104.99997L357 104.99997C 357 96.73532 350.27344 89.99997 342 89.99997zM244.5 135.0527L244.5 135.0527L244.5 135.0527L244.5 135.0527L244.5 135.0527L244.5 187.49997L244.5 187.49997L244.5 187.49997C 244.5 191.63962 241.13965 194.99997 237 194.99997L237 194.99997L237 194.99997C 232.86035 194.99997 229.5 191.63962 229.5 187.49997L229.5 187.49997L229.5 187.49997L229.5 187.49997L229.5 135.0527L229.5 135.0527L229.5 135.0527L229.5 135.0527L214.5 135.0527L214.5 135.0527L214.5 135.0527L214.5 135.0527L214.5 249.02927L214.5 249.02927L214.5 249.02927L214.5 249.02927L259.5 249.02927L259.5 249.02927L259.5 249.02927L259.5 249.02927L259.5 135.0527zM147 263.99118C 138.72656 263.99118 132 270.72653 132 278.99118L132 278.99118L132 278.99118L132 278.99118L132 278.99997L132 278.99997L132 278.99997C 132 287.26462 138.72656 293.99997 147 293.99997L147 293.99997L147 293.99997L147 293.99997L327 293.99997L327 293.99997L327 293.99997C 335.27344 293.99997 342 287.26462 342 278.99118L342 278.99118L342 278.99118C 342 270.72653 335.27344 263.99118 327 263.99118zM165.75 308.99997C 161.61035 308.99997 157.86035 310.67868 155.14453 313.3945L155.14453 313.3945L155.14453 313.3945C 152.42871 316.11032 150.75 319.86032 150.75 323.99997L150.75 323.99997L150.75 323.99997C 150.75 332.2734 157.47656 338.99997 165.75 338.99997L165.75 338.99997L165.75 338.99997L165.75 338.99997L308.25 338.99997L308.25 338.99997L308.25 338.99997C 316.52344 338.99997 323.25 332.2734 323.25 323.99997L323.25 323.99997L323.25 323.99997C 323.25 315.72653 316.52344 308.99997 308.25 308.99997zM169.5 353.99997L169.5 353.99997L169.5 353.99997L169.5 353.99997L169.5 353.99997L169.5 361.49997L169.5 361.49997L169.5 361.49997C 169.5 365.63376 172.86621 368.99997 177 368.99997L177 368.99997L177 368.99997L177 368.99997L207 368.99997L207 368.99997L207 368.99997C 211.13379 368.99997 214.5 365.63376 214.5 361.49997L214.5 361.49997L214.5 361.49997L214.5 361.49997L214.5 353.99997zM229.5 22.49997L229.5 22.49997L229.5 22.49997L229.5 22.49997L229.5 22.49997L229.5 29.99997L229.5 29.99997L229.5 29.99997L229.5 29.99997L263.25 29.99997L263.25 29.99997L263.25 29.99997C 279.79395 29.99997 293.25 43.461884 293.25 59.99997L293.25 59.99997L293.25 59.99997C 293.25 65.78317 291.60645 71.191376 288.7588 75.77341L288.7588 75.77341L288.7588 75.77341C 302.0625 78.84079 312 90.788055 312 104.99997L312 104.99997L312 104.99997L312 104.99997L312 105.00876L312 105.00876L312 105.00876C 312 121.543915 298.54395 135.00876 282 135.00876L282 135.00876L282 135.00876L282 135.00876L229.5 135.00876L229.5 135.00876L229.5 135.00876L229.5 135.00876L229.5 248.99118L229.5 248.99118L229.5 248.99118L229.5 248.99118L282 248.99118L282 248.99118L282 248.99118C 298.54395 248.99118 312 262.45602 312 278.99997L312 278.99997L312 278.99997C 312 293.21188 302.0625 305.15915 288.7588 308.22653L288.7588 308.22653L288.7588 308.22653C 291.60645 312.80856 293.25 318.21677 293.25 323.99997L293.25 323.99997L293.25 323.99997C 293.25 340.53806 279.79395 353.99997 263.25 353.99997L263.25 353.99997L263.25 353.99997L263.25 353.99997L229.5 353.99997L229.5 353.99997L229.5 353.99997L229.5 353.99997L229.5 361.49997L229.5 361.49997L229.5 361.49997C 229.5 373.90427 219.4043 383.99997 207 383.99997L207 383.99997L207 383.99997L207 383.99997L177 383.99997L177 383.99997L177 383.99997C 164.5957 383.99997 154.5 373.90427 154.5 361.49997L154.5 361.49997L154.5 361.49997L154.5 361.49997L154.5 353.99997L154.5 353.99997L154.5 353.99997L154.5 353.99997L120.75 353.99997L120.75 353.99997L120.75 353.99997C 104.206055 353.99997 90.75 340.53806 90.75 323.99997L90.75 323.99997L90.75 323.99997C 90.75 318.21677 92.393555 312.80856 95.24121 308.22653L95.24121 308.22653L95.24121 308.22653C 81.9375 305.15915 72 293.21188 72 278.99997L72 278.99997L72 278.99997L72 278.99997L72 278.99118L72 278.99118L72 278.99118C 72 262.45602 85.456055 248.99118 102 248.99118L102 248.99118L102 248.99118L102 248.99118L154.5 248.99118L154.5 248.99118L154.5 248.99118L154.5 248.99118L154.5 135.00876L154.5 135.00876L154.5 135.00876L154.5 135.00876L102 135.00876L102 135.00876L102 135.00876C 85.456055 135.00876 72 121.543915 72 104.99997L72 104.99997L72 104.99997C 72 90.788055 81.9375 78.84079 95.24121 75.77341L95.24121 75.77341L95.24121 75.77341C 92.393555 71.191376 90.75 65.78317 90.75 59.99997L90.75 59.99997L90.75 59.99997C 90.75 43.461884 104.206055 29.99997 120.75 29.99997L120.75 29.99997L120.75 29.99997L120.75 29.99997L154.5 29.99997L154.5 29.99997L154.5 29.99997L154.5 29.99997L154.5 22.49997L154.5 22.49997L154.5 22.49997C 154.5 10.095673 164.5957 -3.0517578E-05 177 -3.0517578E-05L177 -3.0517578E-05L177 -3.0517578E-05L177 -3.0517578E-05L207 -3.0517578E-05L207 -3.0517578E-05L207 -3.0517578E-05C 219.4043 -3.0517578E-05 229.5 10.095673 229.5 22.49997z" stroke="#FFFFFF" stroke-width="1" fill="#000000" fill-rule="nonzero" />
    <path id=""  transform="matrix(1 0 0 -1 0 384)"  d="M184.5 217.48532C 184.5 221.6279 187.85742 224.98825 192 224.98825L192 224.98825L192 224.98825C 196.14258 224.98825 199.5 221.63376 199.5 217.49118L199.5 217.49118L199.5 217.49118L199.5 217.49118L199.5 217.48532L199.5 217.48532L199.5 217.48532C 199.5 213.34274 196.14258 209.98532 192 209.98532L192 209.98532L192 209.98532C 187.85742 209.98532 184.5 213.34274 184.5 217.48532z" stroke="#FFFFFF" stroke-width="1" fill="#000000" fill-rule="nonzero" />
	</g>
</g>
</svg>