<svg id="Capa_1" enable-background="new 0 0 480 480" height="512" viewBox="0 0 480 480" width="512" xmlns="http://www.w3.org/2000/svg"><g id="XMLID_2540_"><path id="XMLID_2541_" d="m390 315h-120c-16.568 0-30 13.432-30 30 0 16.568 13.432 30 30 30h120c16.568 0 30-13.432 30-30 0-16.568-13.432-30-30-30z"/><path id="XMLID_2542_" d="m135 330v-30h-90v150h90v-90h76.898c-2.532-9.801-2.532-20.195 0-30z"/><path id="XMLID_2543_" d="m450 135v105h-60v30h90v-135z"/><path id="XMLID_2544_" d="m45 180h90v-90h45v-60h-180v60h45z"/><path id="XMLID_2545_" d="m45 210h90v60h-90z"/><path id="XMLID_2546_" d="m300 405h60v45h-60z"/><path id="XMLID_2547_" d="m300 285h60v-75h60v-30c-36.039 0-144.089 0-180 0v30h60z"/></g></svg>