<svg id="Capa_1" enable-background="new 0 0 480 480" height="512" viewBox="0 0 480 480" width="512" xmlns="http://www.w3.org/2000/svg"><g><path d="m480 277.5v-135h-30v105h-75v-30h45v-30c-19.037 0-160.834 0-180 0v30h45v89.5c-19.555 0-36.227 12.5-42.42 30.5h-92.58v-225h30v-90h-180v90h30v345h120v-90h92.58c6.192 17 22.865 29.5 42.42 29.5v60.5h90v-60.5c24.814 0 45-20.187 45-45s-20.186-45-45-45v-29.5zm-420-60h60v60h-60zm-30-165h120v30h-120zm90 60v75h-60v-75zm-60 315v-120h60v120zm285 0h-30v-30h30zm45-75c0 8.271-6.728 15-15 15h-90c-8.272 0-15-6.729-15-15s6.728-15 15-15h90c8.272 0 15 6.729 15 15zm-75-45v-90h30v90z"/></g></svg>