<?xml version="1.0"?>
<svg xmlns="http://www.w3.org/2000/svg" id="outline" viewBox="0 0 512 512" width="512" height="512"><path d="M80,16H48a8.00008,8.00008,0,0,0-8,8V80a8.00008,8.00008,0,0,0,8,8H80a8.00008,8.00008,0,0,0,8-8V72h8.02393a7.972,7.972,0,0,0,.54834,2.97119l28.11621,70.291A39.746,39.746,0,0,0,140.627,164.32666L192,196.43408v42.9541L160.66406,443.07227l-36.78027,22.06787A8.00072,8.00072,0,0,0,120,472v16a8.00008,8.00008,0,0,0,8,8h72a8.00008,8.00008,0,0,0,8-8V473.24219l48-150.85742,48,150.85742V488a8.00008,8.00008,0,0,0,8,8h72a8.00008,8.00008,0,0,0,8-8V472a8.00072,8.00072,0,0,0-3.88379-6.85986l-36.78027-22.06787L320,239.38818v-42.9541l51.373-32.10791a39.74259,39.74259,0,0,0,15.93847-19.064l28.11621-70.291A7.972,7.972,0,0,0,415.97607,72H424v8a8.00008,8.00008,0,0,0,8,8h32a8.00008,8.00008,0,0,0,8-8V24a8.00008,8.00008,0,0,0-8-8H432a8.00008,8.00008,0,0,0-8,8v8H352V24a8.00008,8.00008,0,0,0-8-8H312a8.00008,8.00008,0,0,0-8,8V80a8.00008,8.00008,0,0,0,8,8h32a8.00008,8.00008,0,0,0,8-8V72h8v5.78418l-21.15527,35.2583L288,125.75366V90.42236A26.42138,26.42138,0,0,0,246.92188,68.438L227.5625,81.34375A7.99943,7.99943,0,0,0,224,88v37.75366l-50.84473-12.71118L152,77.78418V72h8v8a8.00008,8.00008,0,0,0,8,8h32a8.00008,8.00008,0,0,0,8-8V24a8.00008,8.00008,0,0,0-8-8H168a8.00008,8.00008,0,0,0-8,8v8H88V24A8.00008,8.00008,0,0,0,80,16ZM72,72H56V32H72ZM440,32h16V72H440ZM336,72H320V32h16ZM176,32h16V72H176ZM136,480v-3.4707l31.50342-18.90186L192,475.99976V480Zm59.79126-21.15625-19.155-14.36621,16.561-107.64575,37.44458,12.48156ZM256,288a7.99922,7.99922,0,0,0-7.62305,5.57422l-12.8833,40.49084-39.82837-13.276L206.86353,248h98.27294l11.19825,72.78906-39.82837,13.276-12.8833-40.49084A7.99922,7.99922,0,0,0,256,288Zm25.35815,61.31335,37.44458-12.48156,16.561,107.64575-19.155,14.36621ZM376,476.5293V480H320v-4.00024l24.49658-18.37232ZM307.75977,185.21582A8.00055,8.00055,0,0,0,304,192v40H208V192a8.00055,8.00055,0,0,0-3.75977-6.78418l-27.60839-17.25476,13.657-34.14252,37.56323,9.39075a31.989,31.989,0,0,0,56.2959,0l37.56323-9.39075,13.657,34.14228ZM240,128V112h32v16a16,16,0,0,1-32,0ZM424,56H412.24585l-2-8H424Zm-72,0V48h8v8Zm-6.05957,71.76123a8.00053,8.00053,0,0,0,4.91992-3.645l24-40A8.01038,8.01038,0,0,0,376,80V48h17.75391l5.85742,23.43066-27.15528,67.88916a23.84557,23.84557,0,0,1-9.56347,11.43848l-13.73853,8.58643L337.377,129.9021ZM255.79785,81.75A10.42171,10.42171,0,0,1,272,90.42236V96H240V92.28174ZM160,56h-8V48h8Zm-41.75391-8H136V80a8.01038,8.01038,0,0,0,1.13965,4.11621l24,40a8.00053,8.00053,0,0,0,4.91992,3.645l8.56348,2.14087L162.8457,159.345l-13.73828-8.58624a23.849,23.849,0,0,1-9.56347-11.439L112.38867,71.43066Zm-16.49194,0-2,8H88V48Z"/></svg>
