<?xml version="1.0" standalone="no"?>
<!DOCTYPE svg PUBLIC "-//W3C//DTD SVG 20010904//EN"
 "http://www.w3.org/TR/2001/REC-SVG-20010904/DTD/svg10.dtd">
<svg version="1.0" xmlns="http://www.w3.org/2000/svg"
 width="512.000000pt" height="512.000000pt" viewBox="0 0 512.000000 512.000000"
 preserveAspectRatio="xMidYMid meet">
<metadata>
Created by potrace 1.16, written by Peter Selinger 2001-2019
</metadata>
<g transform="translate(0.000000,512.000000) scale(0.100000,-0.100000)"
fill="#000000" stroke="none">
<path d="M1990 4105 c-122 -122 -134 -137 -134 -170 0 -34 27 -63 530 -566
291 -291 539 -532 551 -535 40 -11 67 8 186 125 129 126 151 158 142 200 -4
18 -171 192 -533 554 -520 520 -528 527 -567 527 -38 0 -47 -7 -175 -135z"/>
<path d="M3972 3420 c-244 -64 -450 -272 -512 -516 -25 -97 -27 -260 -4 -353
50 -208 197 -389 389 -481 109 -52 190 -70 315 -70 125 0 206 18 315 70 192
92 342 277 389 480 20 84 20 256 0 340 -33 143 -131 297 -249 393 -73 59 -198
121 -285 141 -92 22 -266 20 -358 -4z m338 -167 c179 -49 332 -202 385 -387
22 -75 22 -203 1 -285 -48 -187 -206 -347 -392 -396 -78 -21 -219 -21 -291 0
-185 53 -335 204 -388 388 -24 82 -22 224 4 307 92 290 389 453 681 373z"/>
<path d="M4052 2939 c-50 -25 -107 -88 -123 -136 -6 -19 -9 -66 -7 -103 4 -82
36 -136 108 -185 41 -28 52 -30 132 -30 80 0 89 2 129 30 24 17 57 50 74 74
28 40 30 49 30 129 0 80 -2 91 -30 132 -17 24 -50 58 -73 75 -38 26 -54 30
-120 33 -63 2 -85 -1 -120 -19z m162 -169 c26 -25 25 -76 -2 -102 -45 -45
-125 -13 -125 51 0 70 75 100 127 51z"/>
<path d="M2342 3177 l-22 -23 0 -537 0 -537 -560 0 -560 0 0 138 c0 192 13
182 -241 182 -191 0 -196 0 -217 -23 -22 -23 -22 -24 -22 -520 l0 -497 -218 0
c-285 0 -262 21 -262 -241 0 -191 0 -196 23 -217 l23 -22 2035 0 2036 0 21 23
c22 23 22 24 22 498 l0 476 -23 21 c-22 21 -32 22 -218 22 -262 0 -239 30
-239 -303 l0 -257 -560 0 -560 0 0 742 0 741 -178 179 c-172 172 -178 178
-218 178 -29 0 -46 -6 -62 -23z m-22 -1537 l0 -280 -560 0 -560 0 0 280 0 280
560 0 560 0 0 -280z"/>
<path d="M420 2940 c-19 -19 -20 -33 -20 -218 0 -195 0 -199 23 -220 l23 -22
515 0 516 0 21 23 c21 22 22 32 22 218 0 191 0 196 -23 217 l-23 22 -517 0
c-504 0 -518 -1 -537 -20z"/>
</g>
</svg>
