<svg id="Layer_3" enable-background="new 0 0 64 64" height="512" viewBox="0 0 64 64" width="512" xmlns="http://www.w3.org/2000/svg"><g><path d="m37.586 52 5.414-5.414v-5.172l-5.387 5.388c.245.418.387.899.387 1.409 0 1.538-1.251 2.789-2.789 2.789-.851 0-1.693-.088-2.521-.249l1.647 1.249z"/><path d="m47.992 29.682-14.277 14.927 2.331.932 14.316-14.316c-.873-.388-1.669-.912-2.37-1.543z"/><path d="m47 23c0 3.86 3.141 7 7 7s7-3.14 7-7-3.141-7-7-7-7 3.14-7 7zm7-4c2.206 0 4 1.794 4 4s-1.794 4-4 4-4-1.794-4-4 1.794-4 4-4z"/><path d="m43.803 15.217-.062.031c-.457.228-.741.688-.741 1.199 0 .207.049.415.142.601l.655 1.308 1.803 1.442c.249-.651.562-1.269.948-1.837z"/><path d="m31.281 48.287c1.261.473 2.584.713 3.93.713.435 0 .789-.354.789-.789 0-.324-.194-.612-.495-.732l-8.876-3.55c-.126-.05-.24-.126-.336-.222l-2.445-2.445-1.991 1.659 3.664 3.206z"/><path d="m19.063 38c-.585 0-1.063.477-1.063 1.063 0 .307.133.599.363.801l1.97 1.723 2.095-1.746-.766-.766c-.694-.693-1.617-1.075-2.599-1.075z"/><path d="m50.361 14.775-6.361-6.361-2.086 2.086 5.942 5.942c.732-.687 1.576-1.254 2.505-1.667z"/><path d="m9.051 32.637c.879.879 2.049 1.363 3.292 1.363.225 0 .441-.035.657-.066v-2.519l-2.707-2.707c-.289-.289-.373-.725-.212-1.101l1.544-3.603c-2.553.017-4.625 2.096-4.625 4.653 0 1.245.484 2.414 1.364 3.292z"/><circle cx="54" cy="23" r="2"/><path d="m3 54h58v2h-58z"/><path d="m4.005 35.253 22.328 16.747h4.694l-4.358-3.306-2.02-.758c-.112-.042-.217-.104-.307-.184l-7.243-6.338-.009.012-12.093-9.173c-.215-.163-.482-.253-.752-.253-.686 0-1.245.558-1.245 1.245 0 .786.376 1.536 1.005 2.008z"/><path d="m31.713 43.808 1.081-1.13 2.224-11.863c.039-.212.146-.405.304-.551l9.36-8.64-1.735-1.388-11.031 7.354-1.929 11.573c-.009.052-.03.1-.047.149l.009.003-1.114 3.341z"/><path d="m15 31v2.158c1.206-.842 2-2.236 2-3.815 0-1.245-.484-2.414-1.364-3.292l-.687-.688c-.392-.392-.849-.692-1.338-.919l-1.426 3.328 2.521 2.521c.189.187.294.442.294.707z"/><path d="m16.14 38.196c.377-1.265 1.537-2.196 2.923-2.196 1.516 0 2.94.59 4.013 1.662l3.987 3.988.793-2.379-.613-.613c-2.737-2.737-6.345-4.354-10.196-4.608-1.021 1.021-2.373 1.707-3.877 1.894z"/></g></svg>