<svg id="Capa_1" enable-background="new 0 0 512 512" height="512" viewBox="0 0 512 512" width="512" xmlns="http://www.w3.org/2000/svg" xmlns:xlink="http://www.w3.org/1999/xlink"><linearGradient id="SVGID_1_" gradientUnits="userSpaceOnUse" x1="256" x2="256" y1="481" y2="31"><stop offset="0" stop-color="#00b59c"/><stop offset="1" stop-color="#9cffac"/></linearGradient><g><g><g><path d="m497 361h-15v-15c0-49.451-15.737-96.375-45.512-135.699-26.529-35.039-63.343-61.893-104.544-76.494-1.148-23.798-20.866-42.807-44.944-42.807h-16v-45c0-8.284-6.716-15-15-15s-15 6.716-15 15v45h-16c-24.078 0-43.796 19.009-44.944 42.807-41.201 14.601-78.015 41.456-104.544 76.494-29.775 39.324-45.512 86.248-45.512 135.699v15h-15c-8.284 0-15 6.716-15 15v30c0 41.355 33.645 75 75 75s75-33.645 75-75v-30c0-8.284-6.716-15-15-15h-15v-15c0-50.567 27.905-96.202 72.018-119.429 8.224 8.866 19.963 14.429 32.982 14.429h62c13.019 0 24.758-5.563 32.982-14.429 44.113 23.227 72.018 68.862 72.018 119.429v15h-15c-8.284 0-15 6.716-15 15v30c0 41.355 33.645 75 75 75s75-33.645 75-75v-30c0-8.284-6.716-15-15-15zm-377 45c0 24.813-20.187 45-45 45s-45-20.187-45-45v-15h90zm-30-60v15h-30v-15c0-78.768 48.438-150.101 120-180.042v30.042c0 .986.043 1.961.106 2.931-55.129 28.031-90.106 84.469-90.106 147.069zm212-150c0 8.271-6.729 15-15 15h-62c-8.271 0-15-6.729-15-15 0-15.218 0-44.97 0-60 0-8.271 6.729-15 15-15h62c8.271 0 15 6.729 15 15 0-.1 0 11.906 0 60zm29.894 2.931c.063-.97.106-1.945.106-2.931v-30.042c71.562 29.941 120 101.274 120 180.042v15h-30v-15c0-62.6-34.977-119.038-90.106-147.069zm150.106 207.069c0 24.813-20.187 45-45 45s-45-20.187-45-45v-15h90z" fill="url(#SVGID_1_)"/></g></g></g></svg>